HIERARCHY
ROOT Hips
{
  OFFSET 16.9975 41.2473 -6.599
  CHANNELS 6 Xposition Yposition Zposition Zrotation Xrotation Yrotation
  JOINT LeftHip
  {
    OFFSET 3.43 2.84217e-014 2.22045e-015
    CHANNELS 3 Zrotation Xrotation Yrotation
    JOINT LeftKnee
    {
      OFFSET 3.29584e-015 -18.47 1.66168e-013
      CHANNELS 3 Zrotation Xrotation Yrotation
      JOINT LeftAnkle
      {
        OFFSET -1.50803e-012 -17.95 2.00426e-012
        CHANNELS 3 Zrotation Xrotation Yrotation
        End Site
        {
          OFFSET 0 -3.12 0
        }
      }
    }
  }
  JOINT RightHip
  {
    OFFSET -3.43 2.84217e-014 0
    CHANNELS 3 Zrotation Xrotation Yrotation
    JOINT RightKnee
    {
      OFFSET 3.68151e-014 -18.47 -1.41419e-013
      CHANNELS 3 Zrotation Xrotation Yrotation
      JOINT RightAnkle
      {
        OFFSET 1.5536e-012 -17.95 -2.08018e-012
        CHANNELS 3 Zrotation Xrotation Yrotation
        End Site
        {
          OFFSET 0 -3.12 0
        }
      }
    }
  }
  JOINT Chest
  {
    OFFSET -2.4869e-014 4.57 1.02141e-014
    CHANNELS 3 Zrotation Xrotation Yrotation
    JOINT Chest2
    {
      OFFSET 0 6.57 -1.34648e-015
      CHANNELS 3 Zrotation Xrotation Yrotation
      JOINT LeftCollar
      {
        OFFSET 1.06 4.19 1.76
        CHANNELS 3 Zrotation Xrotation Yrotation
        JOINT LeftShoulder
        {
          OFFSET 5.81 -1.42e-014 2.56656e-015
          CHANNELS 3 Zrotation Xrotation Yrotation
          JOINT LeftElbow
          {
            OFFSET 1.21038e-013 -12.08 -2.06804e-014
            CHANNELS 3 Zrotation Xrotation Yrotation
            JOINT LeftWrist
            {
              OFFSET 4.17344e-013 -9.82 5.26938e-014
              CHANNELS 3 Zrotation Xrotation Yrotation
              End Site
              {
                OFFSET 0 -7.37 0
              }
            }
          }
        }
      }
      JOINT RightCollar
      {
        OFFSET -1.06 4.19 1.76
        CHANNELS 3 Zrotation Xrotation Yrotation
        JOINT RightShoulder
        {
          OFFSET -6.06 -1.42801e-014 6.12109e-015
          CHANNELS 3 Zrotation Xrotation Yrotation
          JOINT RightElbow
          {
            OFFSET 1.02318e-015 -11.08 -3.98098e-014
            CHANNELS 3 Zrotation Xrotation Yrotation
            JOINT RightWrist
            {
              OFFSET -6.71072e-014 -9.82 -1.2777e-013
              CHANNELS 3 Zrotation Xrotation Yrotation
              End Site
              {
                OFFSET 0 -7.14001 0
              }
            }
          }
        }
      }
      JOINT Neck
      {
        OFFSET 0 4.05 3.96765e-015
        CHANNELS 3 Zrotation Xrotation Yrotation
        JOINT Head
        {
          OFFSET 6.73499e-015 5.19 1.42186e-014
          CHANNELS 3 Zrotation Xrotation Yrotation
          End Site
          {
            OFFSET 0 4.14001 0
          }
        }
      }
    }
  }
}
MOTION
Frames:	20
Frame Time:	0.0333333
16.9975 41.2473 -6.599 0.237399 -3.986 -0.851747 0.181267 2.45579 1.80443 0.5579 1.98479 13.9528 7.41211 -0.892656 0.0578561 -0.267423 2.09262 -3.66477 -0.667518 2.35478 1.53953 7.094 1.53091 -0.094899 0.410863 0.255139 -0.795738 0.547941 -2.20909 -2.03493 8.75339 0.101289 3.08954 81.7264 6.02147 11.8795 -4.89941 -2.66892 -0.228699 30.4789 5.19988 -8.38443 -8.40222 0.349506 -2.15138 -86.292 8.3484 -2.38657 2.02385 -0.619763 0.0219016 -23.821 -2.54556 -1.9489 -1.59253 16.2733 0.763241 0.0238442 -2.25028 0.712916 
17.0083 41.2459 -6.60388 0.235321 -3.92534 -0.862251 0.186066 2.3694 1.77437 0.631288 1.97616 13.935 7.32959 -0.667126 0.0427139 -0.225604 1.99101 -3.58186 -0.679687 2.3931 1.4212 7.01596 1.48366 -0.0909725 0.377137 0.241089 -0.750168 0.607879 -2.24547 -1.95841 8.6919 0.091644 2.84391 81.7901 6.23983 11.897 -4.83785 -2.66577 -0.225536 30.2455 5.38197 -8.1041 -8.43804 0.352375 -2.22449 -86.2709 8.35735 -2.38996 2.03182 -0.475963 0.0168965 -23.4508 -2.939 -2.61249 -1.49215 16.1686 0.712514 0.00627537 -2.17976 0.698062 
17.0216 41.2431 -6.61402 0.276655 -3.93903 -0.818961 0.129814 2.38509 1.74743 0.631098 1.94899 14.1056 7.32623 -0.708321 0.0453615 -0.288429 1.9784 -3.62086 -0.688315 2.45052 1.49156 6.94878 1.32705 -0.0805664 0.327357 0.270532 -0.752685 0.546131 -2.18577 -1.96159 8.76353 0.0866573 2.63676 81.8179 6.47513 11.9037 -4.78095 -2.68196 -0.224236 30.0591 5.50191 -7.96292 -8.32014 0.347839 -2.14743 -86.29 8.45899 -2.21531 2.0592 -0.55801 0.0200694 -22.3834 -1.74536 -2.63037 -1.33351 16.1125 0.666261 0.00349142 -2.30651 0.718887 
17.0278 41.2456 -6.6265 0.300714 -3.93009 -0.769974 0.0964831 2.34344 1.74084 0.571242 1.97002 14.0878 7.38701 -0.887103 0.0572589 -0.333126 2.01042 -3.67489 -0.68924 2.34274 1.38571 6.98436 1.37492 -0.0839079 0.33114 0.288912 -0.768198 0.508218 -2.15556 -1.97278 8.79426 0.0889092 2.68375 81.7892 6.35909 12.0284 -4.74377 -2.64761 -0.219612 30.2507 5.55067 -7.70275 -8.49625 0.352388 -2.18851 -85.9965 8.42733 -2.54089 1.97964 -0.523447 0.0180955 -22.7741 -2.23443 -2.36653 -1.31744 16.0315 0.606907 0.00385836 -2.34362 0.664674 
17.0352 41.2393 -6.6406 0.308962 -3.95078 -0.786596 0.0594433 2.4006 1.68907 0.605684 1.93452 14.0624 7.37965 -0.905927 0.0584228 -0.358536 2.05697 -3.68434 -0.710772 2.31238 1.52522 7.02804 1.40209 -0.0861099 0.326094 0.31712 -0.759446 0.49457 -2.09064 -1.96317 8.82707 0.0896044 2.68142 81.722 6.36897 12.1005 -4.69027 -2.71383 -0.222564 30.2958 5.39582 -7.79421 -8.46645 0.350804 -2.15479 -86.0689 8.48503 -2.51067 1.97347 -0.493251 0.0168833 -23.7227 -3.13148 -2.20009 -1.24966 16.0801 0.570905 -0.0896945 -2.57683 0.677444 
17.0532 41.2448 -6.6613 0.258808 -3.94236 -0.884986 0.0943941 2.40173 1.7696 0.546893 1.92567 14.2393 7.38881 -0.881144 0.0569021 -0.327109 2.02305 -3.63657 -0.74513 2.30071 1.6608 7.08825 1.47026 -0.0910637 0.387039 0.366541 -0.741488 0.533882 -2.00665 -1.93892 8.82964 0.0913032 2.7304 81.7119 6.28479 12.121 -4.71683 -2.63125 -0.217015 30.2674 5.52992 -7.63646 -8.31861 0.346101 -2.08773 -86.2245 8.34056 -2.27882 2.08558 -0.0652044 0.0024416 -24.0135 -2.32895 -2.06685 -1.27527 15.9965 0.597538 0.0011515 -2.59915 0.690265 
17.0722 41.2416 -6.69588 0.236014 -3.86962 -1.0406 0.0792452 2.31297 1.77867 0.51262 1.90663 14.4113 7.42812 -1.00782 0.0654162 -0.372773 1.87335 -3.66043 -0.71416 2.371 1.8715 7.07917 1.43382 -0.0886926 0.450573 0.374645 -0.70931 0.562465 -1.97033 -1.89421 8.73253 0.0871983 2.6757 81.7044 6.38842 12.2096 -4.64194 -2.70834 -0.219831 30.359 5.49208 -7.58379 -8.14365 0.340144 -1.98837 -86.5119 8.32358 -2.18429 2.11512 -0.142853 0.00525696 -23.5058 -2.06527 -2.16981 -1.35051 16.0259 0.590095 -0.0129839 -2.64265 0.660422 
17.0939 41.2336 -6.73002 0.336584 -3.76637 -1.17689 -0.0467495 2.19804 1.69521 0.506984 1.89275 14.5281 7.40662 -0.97383 0.0630488 -0.534686 1.64866 -3.72588 -0.67666 2.50448 2.31126 7.08225 1.35561 -0.0838995 0.395318 0.356306 -0.624352 0.499305 -1.97531 -1.7657 8.73698 0.0838044 2.56847 81.7714 6.39091 12.0879 -4.69989 -2.70733 -0.222504 30.1934 5.40648 -7.55396 -8.13419 0.341305 -2.03626 -86.6112 8.29902 -2.30092 2.06946 -0.490289 0.0177161 -22.681 -2.02432 -2.05957 -1.28565 16.0691 0.518443 -0.0461835 -2.62151 0.621179 
17.1135 41.238 -6.73548 0.396323 -3.65845 -1.18931 -0.103326 2.05102 1.64902 0.534382 1.86507 14.6104 7.37244 -0.679263 0.0437493 -0.604224 1.52083 -3.73861 -0.643451 2.48358 2.29794 7.03301 1.31622 -0.0808981 0.322229 0.328976 -0.602312 0.48982 -2.03364 -1.76061 8.77905 0.0844093 2.55805 81.7214 6.36488 12.2504 -4.65285 -2.65036 -0.215632 29.9115 5.04842 -8.02472 -8.03504 0.336808 -1.93218 -86.8356 8.51285 -2.26001 2.02392 -0.932452 0.03299 -23.435 -2.00109 -2.49614 -1.2457 16.0307 0.498391 -0.00729509 -2.57974 0.616878 
17.1248 41.2386 -6.75789 0.407833 -3.68901 -1.19335 -0.121916 2.0862 1.64946 0.491629 1.90768 14.4833 7.37478 -0.994775 0.0641192 -0.645023 1.56438 -3.77958 -0.665184 2.43131 2.27403 7.13917 1.50194 -0.0937031 0.300792 0.378919 -0.609992 0.425368 -1.92664 -1.79111 8.95167 0.0882842 2.55886 81.5983 6.35076 12.073 -4.73584 -2.73938 -0.22685 30.1976 5.15007 -7.98408 -7.78972 0.330711 -1.85372 -87.0287 8.57124 -2.46424 1.92172 -0.903436 0.0303349 -23.806 -2.88522 -2.43796 -1.09881 16.041 0.510436 -0.113179 -2.52494 0.733425 
17.1449 41.2407 -6.77097 0.365024 -3.71687 -1.22436 -0.118602 2.1285 1.67568 0.468507 1.91005 14.5162 7.40514 -1.08208 0.0700307 -0.628141 1.65181 -3.77167 -0.681383 2.3335 2.45192 7.22375 1.60309 -0.101192 0.390221 0.419444 -0.577938 0.483059 -1.8338 -1.73716 8.92492 0.0856211 2.49817 81.434 6.35102 11.9922 -4.75762 -2.88719 -0.240195 30.5395 4.94156 -8.32751 -7.92346 0.333779 -1.88614 -87.0496 8.55774 -2.23485 1.98421 -1.13271 0.0392224 -22.9813 -1.83124 -2.9351 -1.20004 16.1104 0.521491 0.0203095 -2.60549 0.680813 
17.1565 41.2437 -6.7768 0.330391 -3.73918 -1.22405 -0.0760448 2.19689 1.72239 0.497302 1.85099 14.5642 7.31667 -0.912551 0.0583553 -0.54881 1.75006 -3.68412 -0.744511 2.19876 2.30561 7.16788 1.56937 -0.0982999 0.409932 0.463417 -0.560743 0.571157 -1.75722 -1.69451 8.63179 0.0795267 2.50694 81.5357 6.37699 11.87 -4.79003 -3.10931 -0.260416 30.7687 4.89198 -8.19266 -8.11396 0.340502 -2.01948 -87.0311 8.51429 -2.23327 1.99954 -1.32496 0.0461989 -22.8184 -1.46187 -3.09962 -1.38857 16.1311 0.514081 0.156355 -2.62551 0.547527 
17.1683 41.2466 -6.78126 0.300343 -3.7402 -1.20445 -0.0330308 2.20369 1.76066 0.499279 1.82701 14.4822 7.25797 -0.778855 0.0493979 -0.516106 1.76937 -3.66801 -0.723646 2.17348 2.29166 7.13837 1.55944 -0.0972733 0.407994 0.491528 -0.56824 0.600268 -1.7122 -1.76247 8.75415 0.086314 2.63487 81.3423 6.31934 11.7335 -4.8533 -3.31833 -0.281623 30.7331 4.74632 -8.52291 -7.9254 0.334526 -1.91605 -87.2804 8.65372 -1.87685 2.06427 -1.14883 0.0413753 -22.3647 -1.74139 -2.77295 -1.31891 16.1967 0.470626 0.00739848 -2.80264 0.602375 
17.1788 41.2481 -6.79442 0.335051 -3.74402 -1.18522 -0.115932 2.16714 1.68858 0.505391 1.88692 14.6226 7.30619 -0.888386 0.0567153 -0.574182 1.7691 -3.70146 -0.749644 2.15698 2.35831 7.16953 1.53704 -0.0963053 0.369139 0.540617 -0.573668 0.526402 -1.63083 -1.73523 8.44289 0.0797897 2.65833 81.7382 6.32735 11.4398 -4.96652 -3.43949 -0.29856 30.719 4.87622 -8.33804 -8.02058 0.338758 -2.01629 -87.1716 8.55938 -2.39823 1.92287 -1.24703 0.0418784 -22.8984 -1.44498 -2.64478 -1.21825 16.038 0.538476 0.00702006 -2.52776 0.700054 
17.1882 41.2454 -6.80162 0.306518 -3.7098 -1.23343 -0.0711136 2.12664 1.75305 0.462373 1.86153 14.6469 7.31653 -0.819172 0.0523758 -0.554836 1.70118 -3.67857 -0.739538 2.19086 2.31267 7.19943 1.64558 -0.103533 0.332246 0.522111 -0.533369 0.4952 -1.65268 -1.69215 8.80537 0.0813448 2.44609 81.2528 6.61135 11.5939 -4.80664 -3.63781 -0.305663 30.6547 4.67492 -8.4643 -7.91176 0.336236 -1.99229 -87.2475 8.58562 -2.19421 1.991 -1.07623 0.0373835 -22.8751 -1.5341 -4.04773 -1.03761 16.0641 0.536263 -0.166749 -2.06272 0.816261 
17.209 41.2433 -6.80497 0.378049 -3.68929 -1.25638 -0.1826 2.13709 1.67259 0.490807 1.8039 14.7228 7.3097 -0.94377 0.060291 -0.63594 1.6277 -3.68621 -0.771526 2.24996 2.29445 7.14726 1.57611 -0.0984362 0.296983 0.507308 -0.501311 0.468484 -1.67493 -1.68054 8.85836 0.0933816 2.77173 81.2108 6.12039 11.5878 -4.94762 -3.41474 -0.29547 30.9237 4.57559 -8.63239 -7.95933 0.339007 -2.06814 -87.2399 8.55069 -1.80618 2.11479 -0.965698 0.0356887 -22.6278 -1.02554 -4.03053 -1.08495 16.0575 0.523991 -0.201301 -1.73461 0.826432 
17.2205 41.2456 -6.81241 0.317061 -3.6165 -1.31345 -0.164053 2.07019 1.63728 0.537533 1.78828 14.7741 7.28673 -0.828493 0.0527556 -0.608962 1.51654 -3.67075 -0.734169 2.26941 2.29759 7.15229 1.59315 -0.0995685 0.311096 0.468935 -0.486591 0.479025 -1.74346 -1.65333 8.84256 0.0985836 2.93925 81.1854 6.02885 11.6164 -4.93593 -3.48936 -0.301153 30.933 4.7306 -8.48311 -8.02773 0.341238 -2.10206 -87.269 8.55137 -1.9482 2.07523 -1.00079 0.0362062 -21.9561 -1.28639 -4.00179 -1.1788 16.0794 0.603633 -0.105445 -1.57549 0.837111 
17.2287 41.2513 -6.8187 0.268443 -3.59747 -1.37048 -0.142768 2.08577 1.66086 0.507524 1.70579 14.9073 7.33035 -0.931441 0.059667 -0.574788 1.48518 -3.63592 -0.76857 2.2671 2.38577 7.17607 1.55647 -0.0976737 0.35077 0.466431 -0.464725 0.481432 -1.74833 -1.56853 8.6025 0.0943359 2.99915 81.3107 5.97105 11.8115 -4.84716 -3.47349 -0.294379 31.2066 4.7833 -8.474 -8.40163 0.352413 -2.25141 -86.8621 8.43456 -2.52506 1.92464 -1.20364 0.040463 -23.2432 -1.09567 -3.37522 -1.37514 16.057 0.752146 0.115962 -1.39972 0.817777 
17.2346 41.2382 -6.8179 0.259622 -3.62262 -1.3687 -0.171529 2.09819 1.62511 0.504962 1.74574 14.8372 7.36332 -0.94574 0.060862 -0.579242 1.54182 -3.62426 -0.815376 2.19429 2.40301 7.33725 1.82318 -0.116879 0.336868 0.475438 -0.456019 0.412324 -1.74151 -1.58548 8.71405 0.0940186 2.89917 81.2795 6.13677 11.8037 -4.82985 -3.40405 -0.287389 30.52 4.62667 -8.72588 -8.25167 0.347699 -2.18751 -86.9768 8.59507 -2.46746 1.88124 -1.28154 0.0420764 -23.8379 -1.33278 -2.95647 -1.32237 16.1811 0.753553 0.0245233 -1.55935 0.883237 
17.2463 41.2495 -6.82077 0.33999 -3.6525 -1.37759 -0.260882 2.11408 1.57056 0.528491 1.73192 14.895 7.32591 -0.816833 0.0522828 -0.692453 1.54313 -3.72324 -0.765803 2.2178 2.46876 7.26065 1.64456 -0.104357 0.219574 0.507425 -0.481401 0.337249 -1.68863 -1.63596 8.67318 0.0961685 2.99804 81.1488 6.32885 11.9116 -4.69507 -3.69183 -0.303014 30.6209 4.88212 -8.89385 -8.06613 0.341667 -2.09486 -87.1029 8.57035 -2.36507 1.92641 -1.11371 0.0374707 -23.5887 -1.54996 -2.64846 -1.43228 16.0359 0.926983 0.146696 -1.21355 0.973191 
